<svg width="20" height="20" viewBox="0 0 20 20" fill="none" xmlns="http://www.w3.org/2000/svg">
<path d="M7.8916 12.7333C7.73327 12.7333 7.57494 12.6749 7.44994 12.5499C6.7666 11.8666 6.3916 10.9583 6.3916 9.99992C6.3916 8.00827 8.00827 6.3916 9.99992 6.3916C10.9583 6.3916 11.8666 6.7666 12.5499 7.44994C12.6666 7.5666 12.7333 7.72494 12.7333 7.8916C12.7333 8.05827 12.6666 8.2166 12.5499 8.33327L8.33327 12.5499C8.20827 12.6749 8.04994 12.7333 7.8916 12.7333ZM9.99992 7.6416C8.69992 7.6416 7.6416 8.69992 7.6416 9.99992C7.6416 10.4166 7.74993 10.8166 7.94993 11.1666L11.1666 7.94993C10.8166 7.74993 10.4166 7.6416 9.99992 7.6416Z" fill="#484F58"/>
<path d="M4.66654 15.425C4.52487 15.425 4.37487 15.375 4.2582 15.275C3.36654 14.5167 2.56654 13.5833 1.8832 12.5C0.99987 11.125 0.99987 8.88332 1.8832 7.49997C3.91654 4.31664 6.87487 2.48331 9.99984 2.48331C11.8332 2.48331 13.6415 3.11664 15.2248 4.30831C15.4998 4.51664 15.5582 4.90831 15.3498 5.18331C15.1415 5.45831 14.7498 5.51664 14.4748 5.30831C13.1082 4.27497 11.5582 3.73331 9.99984 3.73331C7.3082 3.73331 4.7332 5.34997 2.9332 8.17497C2.3082 9.14999 2.3082 10.85 2.9332 11.825C3.5582 12.8 4.27487 13.6417 5.06654 14.325C5.32487 14.55 5.3582 14.9417 5.1332 15.2083C5.01654 15.35 4.84154 15.425 4.66654 15.425Z" fill="#484F58"/>
<path d="M10.0005 17.5167C8.89221 17.5167 7.80883 17.2917 6.76717 16.85C6.4505 16.7167 6.3005 16.35 6.43383 16.0333C6.56717 15.7167 6.93383 15.5667 7.2505 15.7C8.13383 16.075 9.05887 16.2667 9.99221 16.2667C12.6839 16.2667 15.2589 14.65 17.0589 11.825C17.6839 10.85 17.6839 9.15001 17.0589 8.17501C16.8005 7.76668 16.5171 7.37501 16.2172 7.00834C16.0005 6.74168 16.0422 6.35001 16.3089 6.12501C16.5755 5.90834 16.9671 5.94168 17.1922 6.21668C17.5172 6.61668 17.8339 7.05001 18.1172 7.50001C19.0005 8.87501 19.0005 11.1167 18.1172 12.5C16.0839 15.6833 13.1255 17.5167 10.0005 17.5167Z" fill="#484F58"/>
<path d="M10.5747 13.5584C10.283 13.5584 10.0163 13.3501 9.95799 13.0501C9.89133 12.7084 10.1163 12.3834 10.458 12.3251C11.3747 12.1584 12.1413 11.3917 12.308 10.4751C12.3747 10.1334 12.6997 9.91674 13.0413 9.97507C13.383 10.0417 13.608 10.3667 13.5413 10.7084C13.2747 12.1501 12.1247 13.2917 10.6913 13.5584C10.6497 13.5501 10.6163 13.5584 10.5747 13.5584Z" fill="#484F58"/>
<path d="M1.66625 18.9583C1.50792 18.9583 1.34958 18.9 1.22458 18.775C0.982918 18.5333 0.982918 18.1333 1.22458 17.8917L7.44959 11.6667C7.69125 11.425 8.09125 11.425 8.33292 11.6667C8.57463 11.9083 8.57463 12.3083 8.33292 12.55L2.10792 18.775C1.98292 18.9 1.82458 18.9583 1.66625 18.9583Z" fill="#484F58"/>
<path d="M12.1089 8.51658C11.9505 8.51658 11.7922 8.45825 11.6672 8.33328C11.4255 8.09162 11.4255 7.69162 11.6672 7.44995L17.8922 1.22495C18.1339 0.983285 18.5339 0.983285 18.7755 1.22495C19.0172 1.46662 19.0172 1.86662 18.7755 2.10828L12.5505 8.33328C12.4255 8.45825 12.2672 8.51658 12.1089 8.51658Z" fill="#484F58"/>
</svg>
